<mxfile host="Electron" agent="Mozilla/5.0 (Macintosh; Intel Mac OS X 10_15_7) AppleWebKit/537.36 (KHTML, like Gecko) draw.io/26.0.4 Chrome/128.0.6613.186 Electron/32.2.5 Safari/537.36" version="26.0.4">
  <diagram id="C5RBs43oDa-KdzZeNtuy" name="Page-1">
    <mxGraphModel dx="827" dy="714" grid="1" gridSize="10" guides="1" tooltips="1" connect="1" arrows="1" fold="1" page="1" pageScale="1" pageWidth="827" pageHeight="1169" math="0" shadow="0">
      <root>
        <mxCell id="WIyWlLk6GJQsqaUBKTNV-0" />
        <mxCell id="WIyWlLk6GJQsqaUBKTNV-1" parent="WIyWlLk6GJQsqaUBKTNV-0" />
        <mxCell id="lwfRL3BMpMu4sTTdbCvL-3" value="" style="edgeStyle=orthogonalEdgeStyle;rounded=0;orthogonalLoop=1;jettySize=auto;html=1;" edge="1" parent="WIyWlLk6GJQsqaUBKTNV-1" source="WIyWlLk6GJQsqaUBKTNV-3" target="lwfRL3BMpMu4sTTdbCvL-2">
          <mxGeometry relative="1" as="geometry" />
        </mxCell>
        <mxCell id="WIyWlLk6GJQsqaUBKTNV-3" value="Init global variables&lt;div&gt;(known costs=-infinify, visited nodes=[origin], univisted nodes=all other nodes, routes)&lt;/div&gt;" style="rounded=1;whiteSpace=wrap;html=1;fontSize=12;glass=0;strokeWidth=1;shadow=0;" parent="WIyWlLk6GJQsqaUBKTNV-1" vertex="1">
          <mxGeometry x="336" y="140" width="156" height="70" as="geometry" />
        </mxCell>
        <mxCell id="lwfRL3BMpMu4sTTdbCvL-6" value="" style="edgeStyle=orthogonalEdgeStyle;rounded=0;orthogonalLoop=1;jettySize=auto;html=1;" edge="1" parent="WIyWlLk6GJQsqaUBKTNV-1" source="WIyWlLk6GJQsqaUBKTNV-12" target="lwfRL3BMpMu4sTTdbCvL-4">
          <mxGeometry relative="1" as="geometry" />
        </mxCell>
        <mxCell id="WIyWlLk6GJQsqaUBKTNV-12" value="Set position as current node" style="rounded=1;whiteSpace=wrap;html=1;fontSize=12;glass=0;strokeWidth=1;shadow=0;" parent="WIyWlLk6GJQsqaUBKTNV-1" vertex="1">
          <mxGeometry x="354" y="360" width="120" height="40" as="geometry" />
        </mxCell>
        <mxCell id="lwfRL3BMpMu4sTTdbCvL-1" value="" style="edgeStyle=orthogonalEdgeStyle;rounded=0;orthogonalLoop=1;jettySize=auto;html=1;" edge="1" parent="WIyWlLk6GJQsqaUBKTNV-1" source="lwfRL3BMpMu4sTTdbCvL-0" target="WIyWlLk6GJQsqaUBKTNV-3">
          <mxGeometry relative="1" as="geometry" />
        </mxCell>
        <mxCell id="lwfRL3BMpMu4sTTdbCvL-0" value="Start" style="ellipse;whiteSpace=wrap;html=1;" vertex="1" parent="WIyWlLk6GJQsqaUBKTNV-1">
          <mxGeometry x="374" y="40" width="80" height="50" as="geometry" />
        </mxCell>
        <mxCell id="lwfRL3BMpMu4sTTdbCvL-5" value="" style="edgeStyle=orthogonalEdgeStyle;rounded=0;orthogonalLoop=1;jettySize=auto;html=1;" edge="1" parent="WIyWlLk6GJQsqaUBKTNV-1" source="lwfRL3BMpMu4sTTdbCvL-2" target="WIyWlLk6GJQsqaUBKTNV-12">
          <mxGeometry relative="1" as="geometry" />
        </mxCell>
        <mxCell id="lwfRL3BMpMu4sTTdbCvL-2" value="Set origin node as&amp;nbsp;position&amp;nbsp;" style="rounded=1;whiteSpace=wrap;html=1;fontSize=12;glass=0;strokeWidth=1;shadow=0;" vertex="1" parent="WIyWlLk6GJQsqaUBKTNV-1">
          <mxGeometry x="354" y="260" width="120" height="40" as="geometry" />
        </mxCell>
        <mxCell id="lwfRL3BMpMu4sTTdbCvL-14" value="" style="edgeStyle=orthogonalEdgeStyle;rounded=0;orthogonalLoop=1;jettySize=auto;html=1;" edge="1" parent="WIyWlLk6GJQsqaUBKTNV-1" source="lwfRL3BMpMu4sTTdbCvL-4" target="lwfRL3BMpMu4sTTdbCvL-7">
          <mxGeometry relative="1" as="geometry" />
        </mxCell>
        <mxCell id="lwfRL3BMpMu4sTTdbCvL-4" value="Compute objective function value of all neighbours and update &#39;known costs&#39; with values" style="rounded=1;whiteSpace=wrap;html=1;fontSize=12;glass=0;strokeWidth=1;shadow=0;" vertex="1" parent="WIyWlLk6GJQsqaUBKTNV-1">
          <mxGeometry x="337" y="460" width="154" height="70" as="geometry" />
        </mxCell>
        <mxCell id="lwfRL3BMpMu4sTTdbCvL-15" value="" style="edgeStyle=orthogonalEdgeStyle;rounded=0;orthogonalLoop=1;jettySize=auto;html=1;" edge="1" parent="WIyWlLk6GJQsqaUBKTNV-1" source="lwfRL3BMpMu4sTTdbCvL-7" target="lwfRL3BMpMu4sTTdbCvL-8">
          <mxGeometry relative="1" as="geometry" />
        </mxCell>
        <mxCell id="lwfRL3BMpMu4sTTdbCvL-7" value="Move to path with highest objective value function" style="rounded=1;whiteSpace=wrap;html=1;fontSize=12;glass=0;strokeWidth=1;shadow=0;" vertex="1" parent="WIyWlLk6GJQsqaUBKTNV-1">
          <mxGeometry x="354" y="570" width="120" height="50" as="geometry" />
        </mxCell>
        <mxCell id="lwfRL3BMpMu4sTTdbCvL-9" style="edgeStyle=orthogonalEdgeStyle;rounded=0;orthogonalLoop=1;jettySize=auto;html=1;entryX=0.5;entryY=1;entryDx=0;entryDy=0;" edge="1" parent="WIyWlLk6GJQsqaUBKTNV-1" source="lwfRL3BMpMu4sTTdbCvL-8" target="lwfRL3BMpMu4sTTdbCvL-16">
          <mxGeometry relative="1" as="geometry">
            <Array as="points">
              <mxPoint x="180" y="710" />
            </Array>
          </mxGeometry>
        </mxCell>
        <mxCell id="lwfRL3BMpMu4sTTdbCvL-10" value="Yes" style="edgeLabel;html=1;align=center;verticalAlign=middle;resizable=0;points=[];" vertex="1" connectable="0" parent="lwfRL3BMpMu4sTTdbCvL-9">
          <mxGeometry x="-0.8661" y="-1" relative="1" as="geometry">
            <mxPoint as="offset" />
          </mxGeometry>
        </mxCell>
        <mxCell id="lwfRL3BMpMu4sTTdbCvL-12" value="" style="edgeStyle=orthogonalEdgeStyle;rounded=0;orthogonalLoop=1;jettySize=auto;html=1;" edge="1" parent="WIyWlLk6GJQsqaUBKTNV-1" source="lwfRL3BMpMu4sTTdbCvL-8" target="lwfRL3BMpMu4sTTdbCvL-11">
          <mxGeometry relative="1" as="geometry" />
        </mxCell>
        <mxCell id="lwfRL3BMpMu4sTTdbCvL-13" value="No" style="edgeLabel;html=1;align=center;verticalAlign=middle;resizable=0;points=[];" vertex="1" connectable="0" parent="lwfRL3BMpMu4sTTdbCvL-12">
          <mxGeometry x="-0.2286" y="1" relative="1" as="geometry">
            <mxPoint as="offset" />
          </mxGeometry>
        </mxCell>
        <mxCell id="lwfRL3BMpMu4sTTdbCvL-8" value="Are&lt;div&gt;there any unvisited nodes?&lt;/div&gt;" style="rhombus;whiteSpace=wrap;html=1;shadow=0;fontFamily=Helvetica;fontSize=12;align=center;strokeWidth=1;spacing=6;spacingTop=-4;" vertex="1" parent="WIyWlLk6GJQsqaUBKTNV-1">
          <mxGeometry x="364" y="670" width="100" height="80" as="geometry" />
        </mxCell>
        <mxCell id="lwfRL3BMpMu4sTTdbCvL-19" value="" style="edgeStyle=orthogonalEdgeStyle;rounded=0;orthogonalLoop=1;jettySize=auto;html=1;" edge="1" parent="WIyWlLk6GJQsqaUBKTNV-1" source="lwfRL3BMpMu4sTTdbCvL-11" target="lwfRL3BMpMu4sTTdbCvL-18">
          <mxGeometry relative="1" as="geometry" />
        </mxCell>
        <mxCell id="lwfRL3BMpMu4sTTdbCvL-11" value="Get &#39;end-to-end bandwidth&#39;, &#39;total latency&#39; and &#39;obj. func. cost&#39; of origin node to both base stations" style="rounded=1;whiteSpace=wrap;html=1;" vertex="1" parent="WIyWlLk6GJQsqaUBKTNV-1">
          <mxGeometry x="350" y="820" width="124" height="80" as="geometry" />
        </mxCell>
        <mxCell id="lwfRL3BMpMu4sTTdbCvL-17" style="edgeStyle=orthogonalEdgeStyle;rounded=0;orthogonalLoop=1;jettySize=auto;html=1;entryX=0;entryY=0.5;entryDx=0;entryDy=0;exitX=0.5;exitY=0;exitDx=0;exitDy=0;" edge="1" parent="WIyWlLk6GJQsqaUBKTNV-1" source="lwfRL3BMpMu4sTTdbCvL-16" target="WIyWlLk6GJQsqaUBKTNV-12">
          <mxGeometry relative="1" as="geometry" />
        </mxCell>
        <mxCell id="lwfRL3BMpMu4sTTdbCvL-16" value="Move the node to &#39;visited nodes&#39; and remove from &#39;unvisited nodes&#39;" style="rounded=1;whiteSpace=wrap;html=1;" vertex="1" parent="WIyWlLk6GJQsqaUBKTNV-1">
          <mxGeometry x="120" y="510" width="120" height="60" as="geometry" />
        </mxCell>
        <mxCell id="lwfRL3BMpMu4sTTdbCvL-21" value="" style="edgeStyle=orthogonalEdgeStyle;rounded=0;orthogonalLoop=1;jettySize=auto;html=1;" edge="1" parent="WIyWlLk6GJQsqaUBKTNV-1" source="lwfRL3BMpMu4sTTdbCvL-18" target="lwfRL3BMpMu4sTTdbCvL-20">
          <mxGeometry relative="1" as="geometry" />
        </mxCell>
        <mxCell id="lwfRL3BMpMu4sTTdbCvL-18" value="Select path with lowest &#39;obj. func. cost&#39; and return" style="rounded=1;whiteSpace=wrap;html=1;" vertex="1" parent="WIyWlLk6GJQsqaUBKTNV-1">
          <mxGeometry x="352" y="960" width="120" height="60" as="geometry" />
        </mxCell>
        <mxCell id="lwfRL3BMpMu4sTTdbCvL-20" value="Stop" style="ellipse;whiteSpace=wrap;html=1;" vertex="1" parent="WIyWlLk6GJQsqaUBKTNV-1">
          <mxGeometry x="376" y="1080" width="72" height="40" as="geometry" />
        </mxCell>
      </root>
    </mxGraphModel>
  </diagram>
</mxfile>
